{
    "asset" : {
        "generator" : "Khronos glTF Blender I/O v3.4.50",
        "version" : "2.0"
    },
    "scene" : 0,
    "scenes" : [
        {
            "name" : "Scene",
            "nodes" : [
                0,
                1,
                2,
                3,
                4,
                5,
                6,
                7,
                8,
                9
            ]
        }
    ],
    "nodes" : [
        {
            "mesh" : 0,
            "name" : "frontboard",
            "scale" : [
                0.6647348999977112,
                0.6647348999977112,
                0.5887042284011841
            ],
            "translation" : [
                -0.7678709626197815,
                -0.7268275618553162,
                0.3989878296852112
            ]
        },
        {
            "mesh" : 1,
            "name" : "headboard",
            "scale" : [
                0.6647348999977112,
                0.6647348999977112,
                0.5887042284011841
            ],
            "translation" : [
                -0.7678709626197815,
                -0.7268275618553162,
                0.3989878296852112
            ]
        },
        {
            "mesh" : 2,
            "name" : "pillow1",
            "rotation" : [
                0.3428710699081421,
                0.6184169054031372,
                -0.3428710699081421,
                0.6184168457984924
            ],
            "scale" : [
                0.22916960716247559,
                0.25876668095588684,
                0.25876668095588684
            ],
            "translation" : [
                -0.646931529045105,
                -0.32031115889549255,
                0.3989878296852112
            ]
        },
        {
            "mesh" : 3,
            "name" : "pillow2",
            "rotation" : [
                0.3428710699081421,
                0.6184169054031372,
                -0.3428710699081421,
                0.6184168457984924
            ],
            "scale" : [
                0.22916960716247559,
                0.25876668095588684,
                0.25876668095588684
            ],
            "translation" : [
                -0.646931529045105,
                -0.32031115889549255,
                0.3989878296852112
            ]
        },
        {
            "mesh" : 4,
            "name" : "pillow3",
            "rotation" : [
                0.1971319615840912,
                0.08644013106822968,
                -0.2913719713687897,
                0.9320780634880066
            ],
            "scale" : [
                0.3541904091835022,
                0.35324257612228394,
                0.3238830268383026
            ],
            "translation" : [
                -0.47392991185188293,
                -0.3851010501384735,
                0.6566770076751709
            ]
        },
        {
            "mesh" : 5,
            "name" : "pillow4",
            "rotation" : [
                0,
                0,
                -0.06129927933216095,
                0.9981194138526917
            ],
            "scale" : [
                0.6436853408813477,
                0.6436853408813477,
                0.5700622797012329
            ],
            "translation" : [
                -0.49326902627944946,
                -0.349046915769577,
                0.3989878296852112
            ]
        },
        {
            "mesh" : 6,
            "name" : "topblanket",
            "scale" : [
                0.6647348999977112,
                0.6647348999977112,
                0.5887042284011841
            ],
            "translation" : [
                -0.007105554454028606,
                -0.32067182660102844,
                0.3989878296852112
            ]
        },
        {
            "mesh" : 7,
            "name" : "underblanket",
            "scale" : [
                0.6647348999977112,
                0.6647348999977112,
                0.5887042284011841
            ],
            "translation" : [
                -0.7678709626197815,
                -0.7649254202842712,
                0.3989878296852112
            ]
        },
        {
            "mesh" : 8,
            "name" : "underboard",
            "scale" : [
                0.6647348999977112,
                0.6647348999977112,
                0.5887042284011841
            ],
            "translation" : [
                -0.21613863110542297,
                -0.6557654142379761,
                0.3989878296852112
            ]
        },
        {
            "mesh" : 9,
            "name" : "bottomblanket",
            "scale" : [
                0.6647348999977112,
                0.6647348999977112,
                0.5887042284011841
            ],
            "translation" : [
                -0.007105554454028606,
                -0.32067182660102844,
                0.3989878296852112
            ]
        }
    ],
    "materials" : [
        {
            "doubleSided" : true,
            "name" : "Material.002",
            "pbrMetallicRoughness" : {
                "metallicFactor" : 0,
                "roughnessFactor" : 0.5
            }
        }
    ],
    "meshes" : [
        {
            "name" : "Plane.011",
            "primitives" : [
                {
                    "attributes" : {
                        "POSITION" : 0,
                        "TEXCOORD_0" : 1,
                        "NORMAL" : 2
                    },
                    "indices" : 3,
                    "material" : 0
                }
            ]
        },
        {
            "name" : "Plane",
            "primitives" : [
                {
                    "attributes" : {
                        "POSITION" : 4,
                        "TEXCOORD_0" : 5,
                        "NORMAL" : 6
                    },
                    "indices" : 7,
                    "material" : 0
                }
            ]
        },
        {
            "name" : "Plane.032",
            "primitives" : [
                {
                    "attributes" : {
                        "POSITION" : 8,
                        "TEXCOORD_0" : 9,
                        "NORMAL" : 10
                    },
                    "indices" : 11,
                    "material" : 0
                }
            ]
        },
        {
            "name" : "Plane.034",
            "primitives" : [
                {
                    "attributes" : {
                        "POSITION" : 12,
                        "TEXCOORD_0" : 13,
                        "NORMAL" : 14
                    },
                    "indices" : 15,
                    "material" : 0
                }
            ]
        },
        {
            "name" : "Plane.010",
            "primitives" : [
                {
                    "attributes" : {
                        "POSITION" : 16,
                        "TEXCOORD_0" : 17,
                        "NORMAL" : 18
                    },
                    "indices" : 19,
                    "material" : 0
                }
            ]
        },
        {
            "name" : "Plane.033",
            "primitives" : [
                {
                    "attributes" : {
                        "POSITION" : 20,
                        "TEXCOORD_0" : 21,
                        "NORMAL" : 22
                    },
                    "indices" : 23,
                    "material" : 0
                }
            ]
        },
        {
            "name" : "Plane.003",
            "primitives" : [
                {
                    "attributes" : {
                        "POSITION" : 24,
                        "TEXCOORD_0" : 25,
                        "NORMAL" : 26
                    },
                    "indices" : 27,
                    "material" : 0
                }
            ]
        },
        {
            "name" : "Plane.002",
            "primitives" : [
                {
                    "attributes" : {
                        "POSITION" : 28,
                        "TEXCOORD_0" : 29,
                        "NORMAL" : 30
                    },
                    "indices" : 31,
                    "material" : 0
                }
            ]
        },
        {
            "name" : "Plane.012",
            "primitives" : [
                {
                    "attributes" : {
                        "POSITION" : 32,
                        "TEXCOORD_0" : 33,
                        "NORMAL" : 34
                    },
                    "indices" : 35,
                    "material" : 0
                }
            ]
        },
        {
            "name" : "Plane.001",
            "primitives" : [
                {
                    "attributes" : {
                        "POSITION" : 36,
                        "TEXCOORD_0" : 37,
                        "NORMAL" : 38
                    },
                    "indices" : 39,
                    "material" : 0
                }
            ]
        }
    ],
    "accessors" : [
        {
            "bufferView" : 0,
            "componentType" : 5126,
            "count" : 305,
            "max" : [
                1.7527321577072144,
                0.5816421508789062,
                0.7711754441261292
            ],
            "min" : [
                1.6009820699691772,
                -0.10866118222475052,
                -0.7711754441261292
            ],
            "type" : "VEC3"
        },
        {
            "bufferView" : 1,
            "componentType" : 5126,
            "count" : 305,
            "type" : "VEC2"
        },
        {
            "bufferView" : 2,
            "componentType" : 5126,
            "count" : 305,
            "type" : "VEC3"
        },
        {
            "bufferView" : 3,
            "componentType" : 5123,
            "count" : 1356,
            "type" : "SCALAR"
        },
        {
            "bufferView" : 4,
            "componentType" : 5126,
            "count" : 305,
            "max" : [
                0.04700168967247009,
                1.1506805419921875,
                0.7711753845214844
            ],
            "min" : [
                -0.10474836826324463,
                -0.10866118222475052,
                -0.7711753845214844
            ],
            "type" : "VEC3"
        },
        {
            "bufferView" : 5,
            "componentType" : 5126,
            "count" : 305,
            "type" : "VEC2"
        },
        {
            "bufferView" : 6,
            "componentType" : 5126,
            "count" : 305,
            "type" : "VEC3"
        },
        {
            "bufferView" : 7,
            "componentType" : 5123,
            "count" : 1356,
            "type" : "SCALAR"
        },
        {
            "bufferView" : 8,
            "componentType" : 5126,
            "count" : 1032,
            "max" : [
                1.9015312194824219,
                0.4466470777988434,
                0.9211977124214172
            ],
            "min" : [
                -1.9059010744094849,
                -0.285695880651474,
                -0.9232184886932373
            ],
            "type" : "VEC3"
        },
        {
            "bufferView" : 9,
            "componentType" : 5126,
            "count" : 1032,
            "type" : "VEC2"
        },
        {
            "bufferView" : 10,
            "componentType" : 5126,
            "count" : 1032,
            "type" : "VEC3"
        },
        {
            "bufferView" : 11,
            "componentType" : 5123,
            "count" : 5478,
            "type" : "SCALAR"
        },
        {
            "bufferView" : 12,
            "componentType" : 5126,
            "count" : 156,
            "max" : [
                0.7812729477882385,
                0.4752185344696045,
                0.7792831659317017
            ],
            "min" : [
                -0.6587457060813904,
                -0.04750663787126541,
                -0.7753804326057434
            ],
            "type" : "VEC3"
        },
        {
            "bufferView" : 13,
            "componentType" : 5126,
            "count" : 156,
            "type" : "VEC2"
        },
        {
            "bufferView" : 14,
            "componentType" : 5126,
            "count" : 156,
            "type" : "VEC3"
        },
        {
            "bufferView" : 15,
            "componentType" : 5123,
            "count" : 792,
            "type" : "SCALAR"
        },
        {
            "bufferView" : 16,
            "componentType" : 5126,
            "count" : 167,
            "max" : [
                0.42577698826789856,
                0.2278301864862442,
                0.42577698826789856
            ],
            "min" : [
                -0.42577698826789856,
                0.004027699586004019,
                -0.42577698826789856
            ],
            "type" : "VEC3"
        },
        {
            "bufferView" : 17,
            "componentType" : 5126,
            "count" : 167,
            "type" : "VEC2"
        },
        {
            "bufferView" : 18,
            "componentType" : 5126,
            "count" : 167,
            "type" : "VEC3"
        },
        {
            "bufferView" : 19,
            "componentType" : 5123,
            "count" : 768,
            "type" : "SCALAR"
        },
        {
            "bufferView" : 20,
            "componentType" : 5126,
            "count" : 706,
            "max" : [
                0.21168722212314606,
                0.21924348175525665,
                0.31276723742485046
            ],
            "min" : [
                -0.1672234684228897,
                -0.17715029418468475,
                -0.31296706199645996
            ],
            "type" : "VEC3"
        },
        {
            "bufferView" : 21,
            "componentType" : 5126,
            "count" : 706,
            "type" : "VEC2"
        },
        {
            "bufferView" : 22,
            "componentType" : 5126,
            "count" : 706,
            "type" : "VEC3"
        },
        {
            "bufferView" : 23,
            "componentType" : 5123,
            "count" : 3840,
            "type" : "SCALAR"
        },
        {
            "bufferView" : 24,
            "componentType" : 5126,
            "count" : 137,
            "max" : [
                0.004753828048706055,
                0.059800148010253906,
                0.8411434888839722
            ],
            "min" : [
                -0.5674654841423035,
                -0.43000322580337524,
                -0.8474140763282776
            ],
            "type" : "VEC3"
        },
        {
            "bufferView" : 25,
            "componentType" : 5126,
            "count" : 137,
            "type" : "VEC2"
        },
        {
            "bufferView" : 26,
            "componentType" : 5126,
            "count" : 137,
            "type" : "VEC3"
        },
        {
            "bufferView" : 27,
            "componentType" : 5123,
            "count" : 672,
            "type" : "SCALAR"
        },
        {
            "bufferView" : 28,
            "componentType" : 5126,
            "count" : 159,
            "max" : [
                1.607047438621521,
                0.46907979249954224,
                0.7276171445846558
            ],
            "min" : [
                0.05295966938138008,
                0.22189289331436157,
                -0.7276172041893005
            ],
            "type" : "VEC3"
        },
        {
            "bufferView" : 29,
            "componentType" : 5126,
            "count" : 159,
            "type" : "VEC2"
        },
        {
            "bufferView" : 30,
            "componentType" : 5126,
            "count" : 159,
            "type" : "VEC3"
        },
        {
            "bufferView" : 31,
            "componentType" : 5123,
            "count" : 792,
            "type" : "SCALAR"
        },
        {
            "bufferView" : 32,
            "componentType" : 5126,
            "count" : 80,
            "max" : [
                0.783001720905304,
                0.07081671059131622,
                0.7349262237548828
            ],
            "min" : [
                -0.783001720905304,
                -0.08093341439962387,
                -0.7349262237548828
            ],
            "type" : "VEC3"
        },
        {
            "bufferView" : 33,
            "componentType" : 5126,
            "count" : 80,
            "type" : "VEC2"
        },
        {
            "bufferView" : 34,
            "componentType" : 5126,
            "count" : 80,
            "type" : "VEC3"
        },
        {
            "bufferView" : 35,
            "componentType" : 5123,
            "count" : 342,
            "type" : "SCALAR"
        },
        {
            "bufferView" : 36,
            "componentType" : 5126,
            "count" : 95,
            "max" : [
                0.5137518048286438,
                0.015408501029014587,
                0.8274260759353638
            ],
            "min" : [
                -0.13952875137329102,
                -0.4639686644077301,
                -0.8274260759353638
            ],
            "type" : "VEC3"
        },
        {
            "bufferView" : 37,
            "componentType" : 5126,
            "count" : 95,
            "type" : "VEC2"
        },
        {
            "bufferView" : 38,
            "componentType" : 5126,
            "count" : 95,
            "type" : "VEC3"
        },
        {
            "bufferView" : 39,
            "componentType" : 5123,
            "count" : 444,
            "type" : "SCALAR"
        }
    ],
    "bufferViews" : [
        {
            "buffer" : 0,
            "byteLength" : 3660,
            "byteOffset" : 0,
            "target" : 34962
        },
        {
            "buffer" : 0,
            "byteLength" : 2440,
            "byteOffset" : 3660,
            "target" : 34962
        },
        {
            "buffer" : 0,
            "byteLength" : 3660,
            "byteOffset" : 6100,
            "target" : 34962
        },
        {
            "buffer" : 0,
            "byteLength" : 2712,
            "byteOffset" : 9760,
            "target" : 34963
        },
        {
            "buffer" : 0,
            "byteLength" : 3660,
            "byteOffset" : 12472,
            "target" : 34962
        },
        {
            "buffer" : 0,
            "byteLength" : 2440,
            "byteOffset" : 16132,
            "target" : 34962
        },
        {
            "buffer" : 0,
            "byteLength" : 3660,
            "byteOffset" : 18572,
            "target" : 34962
        },
        {
            "buffer" : 0,
            "byteLength" : 2712,
            "byteOffset" : 22232,
            "target" : 34963
        },
        {
            "buffer" : 0,
            "byteLength" : 12384,
            "byteOffset" : 24944,
            "target" : 34962
        },
        {
            "buffer" : 0,
            "byteLength" : 8256,
            "byteOffset" : 37328,
            "target" : 34962
        },
        {
            "buffer" : 0,
            "byteLength" : 12384,
            "byteOffset" : 45584,
            "target" : 34962
        },
        {
            "buffer" : 0,
            "byteLength" : 10956,
            "byteOffset" : 57968,
            "target" : 34963
        },
        {
            "buffer" : 0,
            "byteLength" : 1872,
            "byteOffset" : 68924,
            "target" : 34962
        },
        {
            "buffer" : 0,
            "byteLength" : 1248,
            "byteOffset" : 70796,
            "target" : 34962
        },
        {
            "buffer" : 0,
            "byteLength" : 1872,
            "byteOffset" : 72044,
            "target" : 34962
        },
        {
            "buffer" : 0,
            "byteLength" : 1584,
            "byteOffset" : 73916,
            "target" : 34963
        },
        {
            "buffer" : 0,
            "byteLength" : 2004,
            "byteOffset" : 75500,
            "target" : 34962
        },
        {
            "buffer" : 0,
            "byteLength" : 1336,
            "byteOffset" : 77504,
            "target" : 34962
        },
        {
            "buffer" : 0,
            "byteLength" : 2004,
            "byteOffset" : 78840,
            "target" : 34962
        },
        {
            "buffer" : 0,
            "byteLength" : 1536,
            "byteOffset" : 80844,
            "target" : 34963
        },
        {
            "buffer" : 0,
            "byteLength" : 8472,
            "byteOffset" : 82380,
            "target" : 34962
        },
        {
            "buffer" : 0,
            "byteLength" : 5648,
            "byteOffset" : 90852,
            "target" : 34962
        },
        {
            "buffer" : 0,
            "byteLength" : 8472,
            "byteOffset" : 96500,
            "target" : 34962
        },
        {
            "buffer" : 0,
            "byteLength" : 7680,
            "byteOffset" : 104972,
            "target" : 34963
        },
        {
            "buffer" : 0,
            "byteLength" : 1644,
            "byteOffset" : 112652,
            "target" : 34962
        },
        {
            "buffer" : 0,
            "byteLength" : 1096,
            "byteOffset" : 114296,
            "target" : 34962
        },
        {
            "buffer" : 0,
            "byteLength" : 1644,
            "byteOffset" : 115392,
            "target" : 34962
        },
        {
            "buffer" : 0,
            "byteLength" : 1344,
            "byteOffset" : 117036,
            "target" : 34963
        },
        {
            "buffer" : 0,
            "byteLength" : 1908,
            "byteOffset" : 118380,
            "target" : 34962
        },
        {
            "buffer" : 0,
            "byteLength" : 1272,
            "byteOffset" : 120288,
            "target" : 34962
        },
        {
            "buffer" : 0,
            "byteLength" : 1908,
            "byteOffset" : 121560,
            "target" : 34962
        },
        {
            "buffer" : 0,
            "byteLength" : 1584,
            "byteOffset" : 123468,
            "target" : 34963
        },
        {
            "buffer" : 0,
            "byteLength" : 960,
            "byteOffset" : 125052,
            "target" : 34962
        },
        {
            "buffer" : 0,
            "byteLength" : 640,
            "byteOffset" : 126012,
            "target" : 34962
        },
        {
            "buffer" : 0,
            "byteLength" : 960,
            "byteOffset" : 126652,
            "target" : 34962
        },
        {
            "buffer" : 0,
            "byteLength" : 684,
            "byteOffset" : 127612,
            "target" : 34963
        },
        {
            "buffer" : 0,
            "byteLength" : 1140,
            "byteOffset" : 128296,
            "target" : 34962
        },
        {
            "buffer" : 0,
            "byteLength" : 760,
            "byteOffset" : 129436,
            "target" : 34962
        },
        {
            "buffer" : 0,
            "byteLength" : 1140,
            "byteOffset" : 130196,
            "target" : 34962
        },
        {
            "buffer" : 0,
            "byteLength" : 888,
            "byteOffset" : 131336,
            "target" : 34963
        }
    ],
    "buffers" : [
        {
            "byteLength" : 132224,
            "uri" : "data:application/octet-stream;base64,"
        }
    ]
}
