{
    "asset" : {
        "generator" : "Khronos glTF Blender I/O v3.4.50",
        "version" : "2.0"
    },
    "extensionsUsed" : [
        "KHR_materials_specular",
        "KHR_materials_ior"
    ],
    "scene" : 0,
    "scenes" : [
        {
            "name" : "Scene",
            "nodes" : [
                0,
                1,
                2
            ]
        }
    ],
    "nodes" : [
        {
            "mesh" : 0,
            "name" : "lamp-base",
            "scale" : [
                0.4165908098220825,
                0.4165908098220825,
                0.4165908098220825
            ],
            "translation" : [
                -0.2190161943435669,
                -0.38174813985824585,
                -0.7192105650901794
            ]
        },
        {
            "mesh" : 1,
            "name" : "lamp-neck",
            "scale" : [
                0.4165908098220825,
                0.4165908098220825,
                0.4165908098220825
            ],
            "translation" : [
                -0.26344966888427734,
                -0.47131335735321045,
                -0.7192105650901794
            ]
        },
        {
            "mesh" : 2,
            "name" : "lamp-shade",
            "rotation" : [
                0,
                0,
                0.20796741545200348,
                0.9781357645988464
            ],
            "scale" : [
                0.41659078001976013,
                0.41659078001976013,
                0.4165908098220825
            ],
            "translation" : [
                -0.18342828750610352,
                -0.12204551696777344,
                -0.7192105054855347
            ]
        }
    ],
    "materials" : [
        {
            "doubleSided" : true,
            "extensions" : {
                "KHR_materials_specular" : {
                    "specularColorFactor" : [
                        1.918192443250897,
                        1.918192443250897,
                        1.918192443250897
                    ]
                },
                "KHR_materials_ior" : {
                    "ior" : 1.4500000476837158
                }
            },
            "name" : "greenPlastic.001",
            "pbrMetallicRoughness" : {
                "baseColorFactor" : [
                    0.1843610405921936,
                    0.008182923309504986,
                    0,
                    1
                ],
                "metallicFactor" : 0,
                "roughnessFactor" : 0.5
            }
        },
        {
            "doubleSided" : true,
            "extensions" : {
                "KHR_materials_specular" : {
                    "specularColorFactor" : [
                        1.918192443250897,
                        1.918192443250897,
                        1.918192443250897
                    ]
                },
                "KHR_materials_ior" : {
                    "ior" : 1.4500000476837158
                }
            },
            "name" : "blackPlastic",
            "pbrMetallicRoughness" : {
                "baseColorFactor" : [
                    0.09720202535390854,
                    0.09720202535390854,
                    0.09720202535390854,
                    1
                ],
                "metallicFactor" : 0,
                "roughnessFactor" : 0.5
            }
        }
    ],
    "meshes" : [
        {
            "name" : "Cylinder.015",
            "primitives" : [
                {
                    "attributes" : {
                        "POSITION" : 0,
                        "TEXCOORD_0" : 1,
                        "NORMAL" : 2
                    },
                    "indices" : 3,
                    "material" : 0
                }
            ]
        },
        {
            "name" : "Cylinder.017",
            "primitives" : [
                {
                    "attributes" : {
                        "POSITION" : 4,
                        "TEXCOORD_0" : 5,
                        "NORMAL" : 6
                    },
                    "indices" : 7,
                    "material" : 1
                }
            ]
        },
        {
            "name" : "Cylinder.018",
            "primitives" : [
                {
                    "attributes" : {
                        "POSITION" : 8,
                        "TEXCOORD_0" : 9,
                        "NORMAL" : 10
                    },
                    "indices" : 11,
                    "material" : 0
                }
            ]
        }
    ],
    "accessors" : [
        {
            "bufferView" : 0,
            "componentType" : 5126,
            "count" : 222,
            "max" : [
                0.1527661830186844,
                0.02978886105120182,
                0.1527661830186844
            ],
            "min" : [
                -0.1527661830186844,
                -0.02978886105120182,
                -0.1527661830186844
            ],
            "type" : "VEC3"
        },
        {
            "bufferView" : 1,
            "componentType" : 5126,
            "count" : 222,
            "type" : "VEC2"
        },
        {
            "bufferView" : 2,
            "componentType" : 5126,
            "count" : 222,
            "type" : "VEC3"
        },
        {
            "bufferView" : 3,
            "componentType" : 5123,
            "count" : 708,
            "type" : "SCALAR"
        },
        {
            "bufferView" : 4,
            "componentType" : 5126,
            "count" : 9984,
            "max" : [
                0.16684536635875702,
                0.8362904191017151,
                0.023691464215517044
            ],
            "min" : [
                -0.05954616516828537,
                0.2548109292984009,
                -0.023691458627581596
            ],
            "type" : "VEC3"
        },
        {
            "bufferView" : 5,
            "componentType" : 5126,
            "count" : 9984,
            "type" : "VEC2"
        },
        {
            "bufferView" : 6,
            "componentType" : 5126,
            "count" : 9984,
            "type" : "VEC3"
        },
        {
            "bufferView" : 7,
            "componentType" : 5123,
            "count" : 29952,
            "type" : "SCALAR"
        },
        {
            "bufferView" : 8,
            "componentType" : 5126,
            "count" : 754,
            "max" : [
                0.12849362194538116,
                0.07605388760566711,
                0.128493532538414
            ],
            "min" : [
                -0.12849339842796326,
                -0.2104915976524353,
                -0.12849347293376923
            ],
            "type" : "VEC3"
        },
        {
            "bufferView" : 9,
            "componentType" : 5126,
            "count" : 754,
            "type" : "VEC2"
        },
        {
            "bufferView" : 10,
            "componentType" : 5126,
            "count" : 754,
            "type" : "VEC3"
        },
        {
            "bufferView" : 11,
            "componentType" : 5123,
            "count" : 3828,
            "type" : "SCALAR"
        }
    ],
    "bufferViews" : [
        {
            "buffer" : 0,
            "byteLength" : 2664,
            "byteOffset" : 0,
            "target" : 34962
        },
        {
            "buffer" : 0,
            "byteLength" : 1776,
            "byteOffset" : 2664,
            "target" : 34962
        },
        {
            "buffer" : 0,
            "byteLength" : 2664,
            "byteOffset" : 4440,
            "target" : 34962
        },
        {
            "buffer" : 0,
            "byteLength" : 1416,
            "byteOffset" : 7104,
            "target" : 34963
        },
        {
            "buffer" : 0,
            "byteLength" : 119808,
            "byteOffset" : 8520,
            "target" : 34962
        },
        {
            "buffer" : 0,
            "byteLength" : 79872,
            "byteOffset" : 128328,
            "target" : 34962
        },
        {
            "buffer" : 0,
            "byteLength" : 119808,
            "byteOffset" : 208200,
            "target" : 34962
        },
        {
            "buffer" : 0,
            "byteLength" : 59904,
            "byteOffset" : 328008,
            "target" : 34963
        },
        {
            "buffer" : 0,
            "byteLength" : 9048,
            "byteOffset" : 387912,
            "target" : 34962
        },
        {
            "buffer" : 0,
            "byteLength" : 6032,
            "byteOffset" : 396960,
            "target" : 34962
        },
        {
            "buffer" : 0,
            "byteLength" : 9048,
            "byteOffset" : 402992,
            "target" : 34962
        },
        {
            "buffer" : 0,
            "byteLength" : 7656,
            "byteOffset" : 412040,
            "target" : 34963
        }
    ],
    "buffers" : [
        {
            "byteLength" : 419696,
            "uri" : "data:application/octet-stream;base64,"
        }
    ]
}
