{
    "asset" : {
        "generator" : "Khronos glTF Blender I/O v3.4.50",
        "version" : "2.0"
    },
    "scene" : 0,
    "scenes" : [
        {
            "name" : "Scene",
            "nodes" : [
                0,
                1,
                2,
                3,
                4,
                5,
                6,
                7
            ]
        }
    ],
    "nodes" : [
        {
            "mesh" : 0,
            "name" : "Cube.022",
            "scale" : [
                0.14695453643798828,
                2.8209049701690674,
                2.297569751739502
            ],
            "translation" : [
                -0.83748459815979,
                0.48080384731292725,
                0.6985960602760315
            ]
        },
        {
            "mesh" : 1,
            "name" : "Cube.023",
            "scale" : [
                0.04100077599287033,
                2.5936615467071533,
                2.021742343902588
            ],
            "translation" : [
                -0.8332722187042236,
                0.4770773649215698,
                0.6991795301437378
            ]
        },
        {
            "mesh" : 2,
            "name" : "Cube.024",
            "scale" : [
                0.04100077599287033,
                2.2703654766082764,
                2.021742343902588
            ],
            "translation" : [
                -0.8332722187042236,
                0.26031923294067383,
                0.33773496747016907
            ]
        },
        {
            "mesh" : 3,
            "name" : "Cube.025",
            "scale" : [
                0.14695453643798828,
                2.53922176361084,
                2.297569751739502
            ],
            "translation" : [
                -0.83748459815979,
                0.26469558477401733,
                0.33715149760246277
            ]
        },
        {
            "mesh" : 4,
            "name" : "Cube.026",
            "scale" : [
                0.14695453643798828,
                2.16215443611145,
                2.297569751739502
            ],
            "translation" : [
                -0.83748459815979,
                0.6430085897445679,
                0.3374440371990204
            ]
        },
        {
            "mesh" : 5,
            "name" : "Cube.027",
            "scale" : [
                0.04100077599287033,
                1.850511908531189,
                2.021742343902588
            ],
            "translation" : [
                -0.8332722187042236,
                0.6392821073532104,
                0.3380275070667267
            ]
        },
        {
            "mesh" : 6,
            "name" : "Cube.028",
            "scale" : [
                0.14695453643798828,
                2.53922176361084,
                2.297569751739502
            ],
            "translation" : [
                -0.83748459815979,
                0.26469558477401733,
                0.6907670497894287
            ]
        },
        {
            "mesh" : 7,
            "name" : "Cube.029",
            "scale" : [
                0.04100077599287033,
                2.2703654766082764,
                2.021742343902588
            ],
            "translation" : [
                -0.8332722187042236,
                0.26031923294067383,
                0.6913504600524902
            ]
        }
    ],
    "materials" : [
        {
            "doubleSided" : true,
            "name" : "Material.007",
            "pbrMetallicRoughness" : {
                "baseColorFactor" : [
                    0.16002680361270905,
                    0.061876118183135986,
                    0.03026966191828251,
                    1
                ],
                "metallicFactor" : 0,
                "roughnessFactor" : 0.5
            }
        },
        {
            "doubleSided" : true,
            "name" : "Material.005",
            "pbrMetallicRoughness" : {
                "baseColorTexture" : {
                    "index" : 0
                },
                "metallicFactor" : 0,
                "roughnessFactor" : 0.5
            }
        },
        {
            "doubleSided" : true,
            "name" : "Material.006",
            "pbrMetallicRoughness" : {
                "baseColorTexture" : {
                    "index" : 1
                },
                "metallicFactor" : 0,
                "roughnessFactor" : 0.5
            }
        },
        {
            "doubleSided" : true,
            "name" : "Material.009",
            "pbrMetallicRoughness" : {
                "baseColorFactor" : [
                    0.16002680361270905,
                    0.061876118183135986,
                    0.03026966191828251,
                    1
                ],
                "metallicFactor" : 0,
                "roughnessFactor" : 0.5
            }
        },
        {
            "doubleSided" : true,
            "name" : "Material.010",
            "pbrMetallicRoughness" : {
                "baseColorTexture" : {
                    "index" : 2
                },
                "metallicFactor" : 0,
                "roughnessFactor" : 0.5
            }
        },
        {
            "doubleSided" : true,
            "name" : "Material.011",
            "pbrMetallicRoughness" : {
                "baseColorFactor" : [
                    0.16002680361270905,
                    0.061876118183135986,
                    0.03026966191828251,
                    1
                ],
                "metallicFactor" : 0,
                "roughnessFactor" : 0.5
            }
        },
        {
            "doubleSided" : true,
            "name" : "Material.012",
            "pbrMetallicRoughness" : {
                "baseColorTexture" : {
                    "index" : 3
                },
                "metallicFactor" : 0,
                "roughnessFactor" : 0.5
            }
        }
    ],
    "meshes" : [
        {
            "name" : "Cube.037",
            "primitives" : [
                {
                    "attributes" : {
                        "POSITION" : 0,
                        "TEXCOORD_0" : 1,
                        "NORMAL" : 2
                    },
                    "indices" : 3,
                    "material" : 0
                }
            ]
        },
        {
            "name" : "Cube.038",
            "primitives" : [
                {
                    "attributes" : {
                        "POSITION" : 4,
                        "TEXCOORD_0" : 5,
                        "NORMAL" : 6
                    },
                    "indices" : 7,
                    "material" : 1
                }
            ]
        },
        {
            "name" : "Cube.039",
            "primitives" : [
                {
                    "attributes" : {
                        "POSITION" : 8,
                        "TEXCOORD_0" : 9,
                        "NORMAL" : 10
                    },
                    "indices" : 11,
                    "material" : 2
                }
            ]
        },
        {
            "name" : "Cube.040",
            "primitives" : [
                {
                    "attributes" : {
                        "POSITION" : 12,
                        "TEXCOORD_0" : 13,
                        "NORMAL" : 14
                    },
                    "indices" : 3,
                    "material" : 0
                }
            ]
        },
        {
            "name" : "Cube.041",
            "primitives" : [
                {
                    "attributes" : {
                        "POSITION" : 15,
                        "TEXCOORD_0" : 16,
                        "NORMAL" : 17
                    },
                    "indices" : 3,
                    "material" : 3
                }
            ]
        },
        {
            "name" : "Cube.042",
            "primitives" : [
                {
                    "attributes" : {
                        "POSITION" : 18,
                        "TEXCOORD_0" : 19,
                        "NORMAL" : 20
                    },
                    "indices" : 11,
                    "material" : 4
                }
            ]
        },
        {
            "name" : "Cube.043",
            "primitives" : [
                {
                    "attributes" : {
                        "POSITION" : 21,
                        "TEXCOORD_0" : 22,
                        "NORMAL" : 23
                    },
                    "indices" : 24,
                    "material" : 5
                }
            ]
        },
        {
            "name" : "Cube.044",
            "primitives" : [
                {
                    "attributes" : {
                        "POSITION" : 25,
                        "TEXCOORD_0" : 26,
                        "NORMAL" : 27
                    },
                    "indices" : 11,
                    "material" : 6
                }
            ]
        }
    ],
    "textures" : [
        {
            "sampler" : 0,
            "source" : 0
        },
        {
            "sampler" : 0,
            "source" : 1
        },
        {
            "sampler" : 0,
            "source" : 2
        },
        {
            "sampler" : 0,
            "source" : 3
        }
    ],
    "images" : [
        {
            "bufferView" : 8,
            "mimeType" : "image/png",
            "name" : "cat-fish"
        },
        {
            "bufferView" : 13,
            "mimeType" : "image/jpeg",
            "name" : "girl2"
        },
        {
            "bufferView" : 23,
            "mimeType" : "image/jpeg",
            "name" : "747e99e3936e76c26720c310c2026848"
        },
        {
            "bufferView" : 31,
            "mimeType" : "image/png",
            "name" : "bunnies"
        }
    ],
    "accessors" : [
        {
            "bufferView" : 0,
            "componentType" : 5126,
            "count" : 98,
            "max" : [
                0.06499999761581421,
                0.06499999761581421,
                0.06499999761581421
            ],
            "min" : [
                -0.06499999761581421,
                -0.06499999761581421,
                -0.06499999761581421
            ],
            "type" : "VEC3"
        },
        {
            "bufferView" : 1,
            "componentType" : 5126,
            "count" : 98,
            "type" : "VEC2"
        },
        {
            "bufferView" : 2,
            "componentType" : 5126,
            "count" : 98,
            "type" : "VEC3"
        },
        {
            "bufferView" : 3,
            "componentType" : 5123,
            "count" : 204,
            "type" : "SCALAR"
        },
        {
            "bufferView" : 4,
            "componentType" : 5126,
            "count" : 24,
            "max" : [
                0.06499999761581421,
                0.06499999761581421,
                0.06499999761581421
            ],
            "min" : [
                -0.06499999761581421,
                -0.06499999761581421,
                -0.06499999761581421
            ],
            "type" : "VEC3"
        },
        {
            "bufferView" : 5,
            "componentType" : 5126,
            "count" : 24,
            "type" : "VEC2"
        },
        {
            "bufferView" : 6,
            "componentType" : 5126,
            "count" : 24,
            "type" : "VEC3"
        },
        {
            "bufferView" : 7,
            "componentType" : 5123,
            "count" : 36,
            "type" : "SCALAR"
        },
        {
            "bufferView" : 9,
            "componentType" : 5126,
            "count" : 24,
            "max" : [
                0.06499999761581421,
                0.06499999761581421,
                0.06499999761581421
            ],
            "min" : [
                -0.06499999761581421,
                -0.06499999761581421,
                -0.06499999761581421
            ],
            "type" : "VEC3"
        },
        {
            "bufferView" : 10,
            "componentType" : 5126,
            "count" : 24,
            "type" : "VEC2"
        },
        {
            "bufferView" : 11,
            "componentType" : 5126,
            "count" : 24,
            "type" : "VEC3"
        },
        {
            "bufferView" : 12,
            "componentType" : 5123,
            "count" : 36,
            "type" : "SCALAR"
        },
        {
            "bufferView" : 14,
            "componentType" : 5126,
            "count" : 98,
            "max" : [
                0.06499999761581421,
                0.06499999761581421,
                0.06499999761581421
            ],
            "min" : [
                -0.06499999761581421,
                -0.06499999761581421,
                -0.06499999761581421
            ],
            "type" : "VEC3"
        },
        {
            "bufferView" : 15,
            "componentType" : 5126,
            "count" : 98,
            "type" : "VEC2"
        },
        {
            "bufferView" : 16,
            "componentType" : 5126,
            "count" : 98,
            "type" : "VEC3"
        },
        {
            "bufferView" : 17,
            "componentType" : 5126,
            "count" : 98,
            "max" : [
                0.06499999761581421,
                0.06499999761581421,
                0.06499999761581421
            ],
            "min" : [
                -0.06499999761581421,
                -0.06499999761581421,
                -0.06499999761581421
            ],
            "type" : "VEC3"
        },
        {
            "bufferView" : 18,
            "componentType" : 5126,
            "count" : 98,
            "type" : "VEC2"
        },
        {
            "bufferView" : 19,
            "componentType" : 5126,
            "count" : 98,
            "type" : "VEC3"
        },
        {
            "bufferView" : 20,
            "componentType" : 5126,
            "count" : 24,
            "max" : [
                0.06499999761581421,
                0.06499999761581421,
                0.06499999761581421
            ],
            "min" : [
                -0.06499999761581421,
                -0.06499999761581421,
                -0.06499999761581421
            ],
            "type" : "VEC3"
        },
        {
            "bufferView" : 21,
            "componentType" : 5126,
            "count" : 24,
            "type" : "VEC2"
        },
        {
            "bufferView" : 22,
            "componentType" : 5126,
            "count" : 24,
            "type" : "VEC3"
        },
        {
            "bufferView" : 24,
            "componentType" : 5126,
            "count" : 92,
            "max" : [
                0.06499999761581421,
                -0.0036458969116210938,
                0.017928466200828552
            ],
            "min" : [
                -0.06499999761581421,
                -0.06499999761581421,
                -0.06499999761581421
            ],
            "type" : "VEC3"
        },
        {
            "bufferView" : 25,
            "componentType" : 5126,
            "count" : 92,
            "type" : "VEC2"
        },
        {
            "bufferView" : 26,
            "componentType" : 5126,
            "count" : 92,
            "type" : "VEC3"
        },
        {
            "bufferView" : 27,
            "componentType" : 5123,
            "count" : 204,
            "type" : "SCALAR"
        },
        {
            "bufferView" : 28,
            "componentType" : 5126,
            "count" : 24,
            "max" : [
                0.06499999761581421,
                -0.011774934828281403,
                0.011506468057632446
            ],
            "min" : [
                -0.06499999761581421,
                -0.06499999761581421,
                -0.06499999761581421
            ],
            "type" : "VEC3"
        },
        {
            "bufferView" : 29,
            "componentType" : 5126,
            "count" : 24,
            "type" : "VEC2"
        },
        {
            "bufferView" : 30,
            "componentType" : 5126,
            "count" : 24,
            "type" : "VEC3"
        }
    ],
    "bufferViews" : [
        {
            "buffer" : 0,
            "byteLength" : 1176,
            "byteOffset" : 0,
            "target" : 34962
        },
        {
            "buffer" : 0,
            "byteLength" : 784,
            "byteOffset" : 1176,
            "target" : 34962
        },
        {
            "buffer" : 0,
            "byteLength" : 1176,
            "byteOffset" : 1960,
            "target" : 34962
        },
        {
            "buffer" : 0,
            "byteLength" : 408,
            "byteOffset" : 3136,
            "target" : 34963
        },
        {
            "buffer" : 0,
            "byteLength" : 288,
            "byteOffset" : 3544,
            "target" : 34962
        },
        {
            "buffer" : 0,
            "byteLength" : 192,
            "byteOffset" : 3832,
            "target" : 34962
        },
        {
            "buffer" : 0,
            "byteLength" : 288,
            "byteOffset" : 4024,
            "target" : 34962
        },
        {
            "buffer" : 0,
            "byteLength" : 72,
            "byteOffset" : 4312,
            "target" : 34963
        },
        {
            "buffer" : 0,
            "byteLength" : 65824,
            "byteOffset" : 4384
        },
        {
            "buffer" : 0,
            "byteLength" : 288,
            "byteOffset" : 70208,
            "target" : 34962
        },
        {
            "buffer" : 0,
            "byteLength" : 192,
            "byteOffset" : 70496,
            "target" : 34962
        },
        {
            "buffer" : 0,
            "byteLength" : 288,
            "byteOffset" : 70688,
            "target" : 34962
        },
        {
            "buffer" : 0,
            "byteLength" : 72,
            "byteOffset" : 70976,
            "target" : 34963
        },
        {
            "buffer" : 0,
            "byteLength" : 76491,
            "byteOffset" : 71048
        },
        {
            "buffer" : 0,
            "byteLength" : 1176,
            "byteOffset" : 147540,
            "target" : 34962
        },
        {
            "buffer" : 0,
            "byteLength" : 784,
            "byteOffset" : 148716,
            "target" : 34962
        },
        {
            "buffer" : 0,
            "byteLength" : 1176,
            "byteOffset" : 149500,
            "target" : 34962
        },
        {
            "buffer" : 0,
            "byteLength" : 1176,
            "byteOffset" : 150676,
            "target" : 34962
        },
        {
            "buffer" : 0,
            "byteLength" : 784,
            "byteOffset" : 151852,
            "target" : 34962
        },
        {
            "buffer" : 0,
            "byteLength" : 1176,
            "byteOffset" : 152636,
            "target" : 34962
        },
        {
            "buffer" : 0,
            "byteLength" : 288,
            "byteOffset" : 153812,
            "target" : 34962
        },
        {
            "buffer" : 0,
            "byteLength" : 192,
            "byteOffset" : 154100,
            "target" : 34962
        },
        {
            "buffer" : 0,
            "byteLength" : 288,
            "byteOffset" : 154292,
            "target" : 34962
        },
        {
            "buffer" : 0,
            "byteLength" : 26347,
            "byteOffset" : 154580
        },
        {
            "buffer" : 0,
            "byteLength" : 1104,
            "byteOffset" : 180928,
            "target" : 34962
        },
        {
            "buffer" : 0,
            "byteLength" : 736,
            "byteOffset" : 182032,
            "target" : 34962
        },
        {
            "buffer" : 0,
            "byteLength" : 1104,
            "byteOffset" : 182768,
            "target" : 34962
        },
        {
            "buffer" : 0,
            "byteLength" : 408,
            "byteOffset" : 183872,
            "target" : 34963
        },
        {
            "buffer" : 0,
            "byteLength" : 288,
            "byteOffset" : 184280,
            "target" : 34962
        },
        {
            "buffer" : 0,
            "byteLength" : 192,
            "byteOffset" : 184568,
            "target" : 34962
        },
        {
            "buffer" : 0,
            "byteLength" : 288,
            "byteOffset" : 184760,
            "target" : 34962
        },
        {
            "buffer" : 0,
            "byteLength" : 119596,
            "byteOffset" : 185048
        }
    ],
    "samplers" : [
        {
            "magFilter" : 9729,
            "minFilter" : 9987
        }
    ],
    "buffers" : [
        {
            "byteLength" : 304644,
            "uri" : "data:application/octet-stream;base64,"
        }
    ]
}
