{
    "asset" : {
        "generator" : "Khronos glTF Blender I/O v3.4.50",
        "version" : "2.0"
    },
    "scene" : 0,
    "scenes" : [
        {
            "name" : "Scene",
            "nodes" : [
                0,
                1,
                2,
                3,
                4,
                5
            ]
        }
    ],
    "nodes" : [
        {
            "mesh" : 0,
            "name" : "blades",
            "rotation" : [
                0,
                0,
                -1,
                7.549790126404332e-08
            ],
            "scale" : [
                -0.2935529351234436,
                -0.4512443542480469,
                -0.2935529351234436
            ],
            "translation" : [
                -0.08292058855295181,
                0.4628073573112488,
                0.10113903880119324
            ]
        },
        {
            "mesh" : 1,
            "name" : "middle-fan",
            "rotation" : [
                0,
                0,
                -1,
                7.549790836947068e-08
            ],
            "scale" : [
                -0.1037553921341896,
                -0.055406395345926285,
                -0.1037553921341896
            ],
            "translation" : [
                0,
                0.5352097749710083,
                0
            ]
        },
        {
            "mesh" : 2,
            "name" : "top-fan",
            "rotation" : [
                0,
                0,
                -1,
                7.549790126404332e-08
            ],
            "scale" : [
                -0.07132896035909653,
                -0.049406103789806366,
                -0.07132896035909653
            ],
            "translation" : [
                0,
                0.5726222395896912,
                0
            ]
        },
        {
            "mesh" : 3,
            "name" : "pole",
            "rotation" : [
                0,
                0,
                -1,
                7.549790126404332e-08
            ],
            "scale" : [
                -0.00916214194148779,
                -0.3579697608947754,
                -0.00916214194148779
            ],
            "translation" : [
                0,
                0.8572025299072266,
                0
            ]
        },
        {
            "mesh" : 4,
            "name" : "bladeholder-fan",
            "rotation" : [
                0,
                1,
                0,
                5.6999328827277325e-15
            ],
            "scale" : [
                -0.1037553921341896,
                -0.07186631858348846,
                -0.1037553921341896
            ],
            "translation" : [
                0,
                0.40808093547821045,
                0
            ]
        },
        {
            "mesh" : 5,
            "name" : "light-fan",
            "rotation" : [
                0,
                1,
                0,
                5.699933306244206e-15
            ],
            "scale" : [
                -0.09374954551458359,
                -0.04807516932487488,
                -0.09374954551458359
            ],
            "translation" : [
                0,
                0.4039772152900696,
                0
            ]
        }
    ],
    "materials" : [
        {
            "doubleSided" : true,
            "name" : "Material.022",
            "pbrMetallicRoughness" : {
                "baseColorFactor" : [
                    0.8000000715255737,
                    0.5849039554595947,
                    0.33783528208732605,
                    1
                ],
                "metallicFactor" : 0,
                "roughnessFactor" : 0.5
            }
        },
        {
            "doubleSided" : true,
            "name" : "lightwood",
            "pbrMetallicRoughness" : {
                "baseColorTexture" : {
                    "index" : 0
                },
                "metallicFactor" : 0,
                "roughnessFactor" : 0.5
            }
        },
        {
            "doubleSided" : true,
            "name" : "Material.024",
            "pbrMetallicRoughness" : {
                "baseColorFactor" : [
                    0.8000000715255737,
                    0.2719774544239044,
                    0.07107435166835785,
                    1
                ],
                "metallicFactor" : 0,
                "roughnessFactor" : 0.5
            }
        },
        {
            "doubleSided" : true,
            "name" : "Material",
            "pbrMetallicRoughness" : {
                "baseColorFactor" : [
                    0.8000000715255737,
                    0.7667506337165833,
                    0.39089223742485046,
                    1
                ],
                "metallicFactor" : 0,
                "roughnessFactor" : 0.5
            }
        }
    ],
    "meshes" : [
        {
            "name" : "Cube.011",
            "primitives" : [
                {
                    "attributes" : {
                        "POSITION" : 0,
                        "TEXCOORD_0" : 1,
                        "NORMAL" : 2
                    },
                    "indices" : 3,
                    "material" : 0
                }
            ]
        },
        {
            "name" : "Cylinder",
            "primitives" : [
                {
                    "attributes" : {
                        "POSITION" : 4,
                        "TEXCOORD_0" : 5,
                        "NORMAL" : 6
                    },
                    "indices" : 7,
                    "material" : 1
                }
            ]
        },
        {
            "name" : "Cylinder.002",
            "primitives" : [
                {
                    "attributes" : {
                        "POSITION" : 8,
                        "TEXCOORD_0" : 9,
                        "NORMAL" : 10
                    },
                    "indices" : 11,
                    "material" : 2
                }
            ]
        },
        {
            "name" : "Cylinder.003",
            "primitives" : [
                {
                    "attributes" : {
                        "POSITION" : 12,
                        "TEXCOORD_0" : 13,
                        "NORMAL" : 14
                    },
                    "indices" : 15,
                    "material" : 3
                }
            ]
        },
        {
            "name" : "Cylinder.005",
            "primitives" : [
                {
                    "attributes" : {
                        "POSITION" : 16,
                        "TEXCOORD_0" : 17,
                        "NORMAL" : 18
                    },
                    "indices" : 19,
                    "material" : 1
                }
            ]
        },
        {
            "name" : "Cylinder.006",
            "primitives" : [
                {
                    "attributes" : {
                        "POSITION" : 20,
                        "TEXCOORD_0" : 21,
                        "NORMAL" : 22
                    },
                    "indices" : 23
                }
            ]
        }
    ],
    "textures" : [
        {
            "sampler" : 0,
            "source" : 0
        }
    ],
    "images" : [
        {
            "bufferView" : 8,
            "mimeType" : "image/png",
            "name" : "light-wood"
        }
    ],
    "accessors" : [
        {
            "bufferView" : 0,
            "componentType" : 5126,
            "count" : 545,
            "max" : [
                1.8878203630447388,
                0.019843939691781998,
                1.7151339054107666
            ],
            "min" : [
                -1.297940731048584,
                -0.019843898713588715,
                -1.3025681972503662
            ],
            "type" : "VEC3"
        },
        {
            "bufferView" : 1,
            "componentType" : 5126,
            "count" : 545,
            "type" : "VEC2"
        },
        {
            "bufferView" : 2,
            "componentType" : 5126,
            "count" : 545,
            "type" : "VEC3"
        },
        {
            "bufferView" : 3,
            "componentType" : 5123,
            "count" : 1380,
            "type" : "SCALAR"
        },
        {
            "bufferView" : 4,
            "componentType" : 5126,
            "count" : 130,
            "max" : [
                1,
                -0.19155460596084595,
                1
            ],
            "min" : [
                -1,
                -1,
                -1
            ],
            "type" : "VEC3"
        },
        {
            "bufferView" : 5,
            "componentType" : 5126,
            "count" : 130,
            "type" : "VEC2"
        },
        {
            "bufferView" : 6,
            "componentType" : 5126,
            "count" : 130,
            "type" : "VEC3"
        },
        {
            "bufferView" : 7,
            "componentType" : 5123,
            "count" : 372,
            "type" : "SCALAR"
        },
        {
            "bufferView" : 9,
            "componentType" : 5126,
            "count" : 446,
            "max" : [
                1,
                -0.5364829897880554,
                1
            ],
            "min" : [
                -1,
                -1,
                -1
            ],
            "type" : "VEC3"
        },
        {
            "bufferView" : 10,
            "componentType" : 5126,
            "count" : 446,
            "type" : "VEC2"
        },
        {
            "bufferView" : 11,
            "componentType" : 5126,
            "count" : 446,
            "type" : "VEC3"
        },
        {
            "bufferView" : 12,
            "componentType" : 5123,
            "count" : 1605,
            "type" : "SCALAR"
        },
        {
            "bufferView" : 13,
            "componentType" : 5126,
            "count" : 192,
            "max" : [
                1,
                0.4563201069831848,
                1
            ],
            "min" : [
                -1.000002145767212,
                -1,
                -1
            ],
            "type" : "VEC3"
        },
        {
            "bufferView" : 14,
            "componentType" : 5126,
            "count" : 192,
            "type" : "VEC2"
        },
        {
            "bufferView" : 15,
            "componentType" : 5126,
            "count" : 192,
            "type" : "VEC3"
        },
        {
            "bufferView" : 16,
            "componentType" : 5123,
            "count" : 372,
            "type" : "SCALAR"
        },
        {
            "bufferView" : 17,
            "componentType" : 5126,
            "count" : 196,
            "max" : [
                1.007782220840454,
                -0.5763437151908875,
                1.007782220840454
            ],
            "min" : [
                -1.007782220840454,
                -1,
                -1.007782220840454
            ],
            "type" : "VEC3"
        },
        {
            "bufferView" : 18,
            "componentType" : 5126,
            "count" : 196,
            "type" : "VEC2"
        },
        {
            "bufferView" : 19,
            "componentType" : 5126,
            "count" : 196,
            "type" : "VEC3"
        },
        {
            "bufferView" : 20,
            "componentType" : 5123,
            "count" : 564,
            "type" : "SCALAR"
        },
        {
            "bufferView" : 21,
            "componentType" : 5126,
            "count" : 229,
            "max" : [
                1.003891110420227,
                -0.5852172374725342,
                1.003891110420227
            ],
            "min" : [
                -1.003891110420227,
                -1,
                -1.003891110420227
            ],
            "type" : "VEC3"
        },
        {
            "bufferView" : 22,
            "componentType" : 5126,
            "count" : 229,
            "type" : "VEC2"
        },
        {
            "bufferView" : 23,
            "componentType" : 5126,
            "count" : 229,
            "type" : "VEC3"
        },
        {
            "bufferView" : 24,
            "componentType" : 5123,
            "count" : 756,
            "type" : "SCALAR"
        }
    ],
    "bufferViews" : [
        {
            "buffer" : 0,
            "byteLength" : 6540,
            "byteOffset" : 0,
            "target" : 34962
        },
        {
            "buffer" : 0,
            "byteLength" : 4360,
            "byteOffset" : 6540,
            "target" : 34962
        },
        {
            "buffer" : 0,
            "byteLength" : 6540,
            "byteOffset" : 10900,
            "target" : 34962
        },
        {
            "buffer" : 0,
            "byteLength" : 2760,
            "byteOffset" : 17440,
            "target" : 34963
        },
        {
            "buffer" : 0,
            "byteLength" : 1560,
            "byteOffset" : 20200,
            "target" : 34962
        },
        {
            "buffer" : 0,
            "byteLength" : 1040,
            "byteOffset" : 21760,
            "target" : 34962
        },
        {
            "buffer" : 0,
            "byteLength" : 1560,
            "byteOffset" : 22800,
            "target" : 34962
        },
        {
            "buffer" : 0,
            "byteLength" : 744,
            "byteOffset" : 24360,
            "target" : 34963
        },
        {
            "buffer" : 0,
            "byteLength" : 129548,
            "byteOffset" : 25104
        },
        {
            "buffer" : 0,
            "byteLength" : 5352,
            "byteOffset" : 154652,
            "target" : 34962
        },
        {
            "buffer" : 0,
            "byteLength" : 3568,
            "byteOffset" : 160004,
            "target" : 34962
        },
        {
            "buffer" : 0,
            "byteLength" : 5352,
            "byteOffset" : 163572,
            "target" : 34962
        },
        {
            "buffer" : 0,
            "byteLength" : 3210,
            "byteOffset" : 168924,
            "target" : 34963
        },
        {
            "buffer" : 0,
            "byteLength" : 2304,
            "byteOffset" : 172136,
            "target" : 34962
        },
        {
            "buffer" : 0,
            "byteLength" : 1536,
            "byteOffset" : 174440,
            "target" : 34962
        },
        {
            "buffer" : 0,
            "byteLength" : 2304,
            "byteOffset" : 175976,
            "target" : 34962
        },
        {
            "buffer" : 0,
            "byteLength" : 744,
            "byteOffset" : 178280,
            "target" : 34963
        },
        {
            "buffer" : 0,
            "byteLength" : 2352,
            "byteOffset" : 179024,
            "target" : 34962
        },
        {
            "buffer" : 0,
            "byteLength" : 1568,
            "byteOffset" : 181376,
            "target" : 34962
        },
        {
            "buffer" : 0,
            "byteLength" : 2352,
            "byteOffset" : 182944,
            "target" : 34962
        },
        {
            "buffer" : 0,
            "byteLength" : 1128,
            "byteOffset" : 185296,
            "target" : 34963
        },
        {
            "buffer" : 0,
            "byteLength" : 2748,
            "byteOffset" : 186424,
            "target" : 34962
        },
        {
            "buffer" : 0,
            "byteLength" : 1832,
            "byteOffset" : 189172,
            "target" : 34962
        },
        {
            "buffer" : 0,
            "byteLength" : 2748,
            "byteOffset" : 191004,
            "target" : 34962
        },
        {
            "buffer" : 0,
            "byteLength" : 1512,
            "byteOffset" : 193752,
            "target" : 34963
        }
    ],
    "samplers" : [
        {
            "magFilter" : 9729,
            "minFilter" : 9987
        }
    ],
    "buffers" : [
        {
            "byteLength" : 195264,
            "uri" : "data:application/octet-stream;base64,"
        }
    ]
}
