{
    "asset" : {
        "generator" : "Khronos glTF Blender I/O v3.4.50",
        "version" : "2.0"
    },
    "scene" : 0,
    "scenes" : [
        {
            "name" : "Scene",
            "nodes" : [
                0,
                1
            ]
        }
    ],
    "nodes" : [
        {
            "mesh" : 0,
            "name" : "roomFloor.002",
            "scale" : [
                1,
                0.07155221700668335,
                1
            ],
            "translation" : [
                -0.050421714782714844,
                -0.8868705630302429,
                -0.019521474838256836
            ]
        },
        {
            "mesh" : 1,
            "name" : "roomFloor",
            "scale" : [
                1,
                0.07155221700668335,
                1
            ],
            "translation" : [
                -0.03316783905029297,
                -0.8868705630302429,
                -0.020545894280076027
            ]
        }
    ],
    "materials" : [
        {
            "doubleSided" : true,
            "name" : "Material.018",
            "pbrMetallicRoughness" : {
                "baseColorTexture" : {
                    "index" : 0
                },
                "metallicFactor" : 0,
                "roughnessFactor" : 0.5
            }
        },
        {
            "doubleSided" : true,
            "name" : "Material.020",
            "pbrMetallicRoughness" : {
                "baseColorFactor" : [
                    0.19893503189086914,
                    0.12371095269918442,
                    0.07586943358182907,
                    1
                ],
                "metallicFactor" : 0,
                "roughnessFactor" : 0.5
            }
        }
    ],
    "meshes" : [
        {
            "name" : "Cube.009",
            "primitives" : [
                {
                    "attributes" : {
                        "POSITION" : 0,
                        "TEXCOORD_0" : 1,
                        "NORMAL" : 2
                    },
                    "indices" : 3,
                    "material" : 0
                }
            ]
        },
        {
            "name" : "Cube.034",
            "primitives" : [
                {
                    "attributes" : {
                        "POSITION" : 4,
                        "TEXCOORD_0" : 5,
                        "NORMAL" : 6
                    },
                    "indices" : 7,
                    "material" : 1
                }
            ]
        }
    ],
    "textures" : [
        {
            "sampler" : 0,
            "source" : 0
        }
    ],
    "images" : [
        {
            "bufferView" : 4,
            "mimeType" : "image/png",
            "name" : "wood-flooring"
        }
    ],
    "accessors" : [
        {
            "bufferView" : 0,
            "componentType" : 5126,
            "count" : 2344,
            "max" : [
                0.995983362197876,
                1.3683967590332031,
                0.9874807596206665
            ],
            "min" : [
                -0.8250935673713684,
                0.9441051483154297,
                -0.84485924243927
            ],
            "type" : "VEC3"
        },
        {
            "bufferView" : 1,
            "componentType" : 5126,
            "count" : 2344,
            "type" : "VEC2"
        },
        {
            "bufferView" : 2,
            "componentType" : 5126,
            "count" : 2344,
            "type" : "VEC3"
        },
        {
            "bufferView" : 3,
            "componentType" : 5123,
            "count" : 4512,
            "type" : "SCALAR"
        },
        {
            "bufferView" : 5,
            "componentType" : 5126,
            "count" : 350,
            "max" : [
                1,
                1,
                1
            ],
            "min" : [
                -0.8319714069366455,
                -1,
                -0.8551477789878845
            ],
            "type" : "VEC3"
        },
        {
            "bufferView" : 6,
            "componentType" : 5126,
            "count" : 350,
            "type" : "VEC2"
        },
        {
            "bufferView" : 7,
            "componentType" : 5126,
            "count" : 350,
            "type" : "VEC3"
        },
        {
            "bufferView" : 8,
            "componentType" : 5123,
            "count" : 1764,
            "type" : "SCALAR"
        }
    ],
    "bufferViews" : [
        {
            "buffer" : 0,
            "byteLength" : 28128,
            "byteOffset" : 0,
            "target" : 34962
        },
        {
            "buffer" : 0,
            "byteLength" : 18752,
            "byteOffset" : 28128,
            "target" : 34962
        },
        {
            "buffer" : 0,
            "byteLength" : 28128,
            "byteOffset" : 46880,
            "target" : 34962
        },
        {
            "buffer" : 0,
            "byteLength" : 9024,
            "byteOffset" : 75008,
            "target" : 34963
        },
        {
            "buffer" : 0,
            "byteLength" : 137371,
            "byteOffset" : 84032
        },
        {
            "buffer" : 0,
            "byteLength" : 4200,
            "byteOffset" : 221404,
            "target" : 34962
        },
        {
            "buffer" : 0,
            "byteLength" : 2800,
            "byteOffset" : 225604,
            "target" : 34962
        },
        {
            "buffer" : 0,
            "byteLength" : 4200,
            "byteOffset" : 228404,
            "target" : 34962
        },
        {
            "buffer" : 0,
            "byteLength" : 3528,
            "byteOffset" : 232604,
            "target" : 34963
        }
    ],
    "samplers" : [
        {
            "magFilter" : 9729,
            "minFilter" : 9987
        }
    ],
    "buffers" : [
        {
            "byteLength" : 236132,
            "uri" : "data:application/octet-stream;base64,"
        }
    ]
}
