{
    "asset" : {
        "generator" : "Khronos glTF Blender I/O v3.4.50",
        "version" : "2.0"
    },
    "scene" : 0,
    "scenes" : [
        {
            "name" : "Scene",
            "nodes" : [
                0
            ]
        }
    ],
    "nodes" : [
        {
            "mesh" : 0,
            "name" : "roomFloor",
            "scale" : [
                1,
                0.07155221700668335,
                1
            ],
            "translation" : [
                0,
                -0.8868705630302429,
                0
            ]
        }
    ],
    "meshes" : [
        {
            "name" : "Cube.002",
            "primitives" : [
                {
                    "attributes" : {
                        "POSITION" : 0,
                        "TEXCOORD_0" : 1,
                        "NORMAL" : 2
                    },
                    "indices" : 3
                }
            ]
        }
    ],
    "accessors" : [
        {
            "bufferView" : 0,
            "componentType" : 5126,
            "count" : 2694,
            "max" : [
                1,
                1.3683967590332031,
                1
            ],
            "min" : [
                -0.8319714069366455,
                -1,
                -0.8551477789878845
            ],
            "type" : "VEC3"
        },
        {
            "bufferView" : 1,
            "componentType" : 5126,
            "count" : 2694,
            "type" : "VEC2"
        },
        {
            "bufferView" : 2,
            "componentType" : 5126,
            "count" : 2694,
            "type" : "VEC3"
        },
        {
            "bufferView" : 3,
            "componentType" : 5123,
            "count" : 6276,
            "type" : "SCALAR"
        }
    ],
    "bufferViews" : [
        {
            "buffer" : 0,
            "byteLength" : 32328,
            "byteOffset" : 0,
            "target" : 34962
        },
        {
            "buffer" : 0,
            "byteLength" : 21552,
            "byteOffset" : 32328,
            "target" : 34962
        },
        {
            "buffer" : 0,
            "byteLength" : 32328,
            "byteOffset" : 53880,
            "target" : 34962
        },
        {
            "buffer" : 0,
            "byteLength" : 12552,
            "byteOffset" : 86208,
            "target" : 34963
        }
    ],
    "buffers" : [
        {
            "byteLength" : 98760,
            "uri" : "data:application/octet-stream;base64,"
        }
    ]
}
