{
    "asset" : {
        "generator" : "Khronos glTF Blender I/O v3.4.50",
        "version" : "2.0"
    },
    "scene" : 0,
    "scenes" : [
        {
            "name" : "Scene",
            "nodes" : [
                0
            ]
        }
    ],
    "nodes" : [
        {
            "mesh" : 0,
            "name" : "frame",
            "rotation" : [
                0,
                -0.3826834559440613,
                0,
                0.9238795638084412
            ],
            "scale" : [
                -0.05561375617980957,
                -0.05561375617980957,
                -0.05561375617980957
            ],
            "translation" : [
                -0.2090698480606079,
                0.0884023904800415,
                -1.0473512411117554
            ]
        }
    ],
    "meshes" : [
        {
            "name" : "Cube.023",
            "primitives" : [
                {
                    "attributes" : {
                        "POSITION" : 0,
                        "TEXCOORD_0" : 1,
                        "NORMAL" : 2
                    },
                    "indices" : 3
                }
            ]
        }
    ],
    "accessors" : [
        {
            "bufferView" : 0,
            "componentType" : 5126,
            "count" : 2456,
            "max" : [
                0.6975071430206299,
                6.441611289978027,
                9.096461296081543
            ],
            "min" : [
                -0.13000020384788513,
                -6.441609859466553,
                -0.13000106811523438
            ],
            "type" : "VEC3"
        },
        {
            "bufferView" : 1,
            "componentType" : 5126,
            "count" : 2456,
            "type" : "VEC2"
        },
        {
            "bufferView" : 2,
            "componentType" : 5126,
            "count" : 2456,
            "type" : "VEC3"
        },
        {
            "bufferView" : 3,
            "componentType" : 5123,
            "count" : 3384,
            "type" : "SCALAR"
        }
    ],
    "bufferViews" : [
        {
            "buffer" : 0,
            "byteLength" : 29472,
            "byteOffset" : 0,
            "target" : 34962
        },
        {
            "buffer" : 0,
            "byteLength" : 19648,
            "byteOffset" : 29472,
            "target" : 34962
        },
        {
            "buffer" : 0,
            "byteLength" : 29472,
            "byteOffset" : 49120,
            "target" : 34962
        },
        {
            "buffer" : 0,
            "byteLength" : 6768,
            "byteOffset" : 78592,
            "target" : 34963
        }
    ],
    "buffers" : [
        {
            "byteLength" : 85360,
            "uri" : "data:application/octet-stream;base64,"
        }
    ]
}
