{
    "asset" : {
        "generator" : "Khronos glTF Blender I/O v3.4.50",
        "version" : "2.0"
    },
    "scene" : 0,
    "scenes" : [
        {
            "name" : "Scene",
            "nodes" : [
                0,
                1
            ]
        }
    ],
    "nodes" : [
        {
            "mesh" : 0,
            "name" : "Planter",
            "rotation" : [
                0.70710688829422,
                0,
                0,
                0.7071066498756409
            ],
            "scale" : [
                0.08127385377883911,
                0.08127386122941971,
                0.09127684682607651
            ],
            "translation" : [
                0.33159005641937256,
                0.9820805788040161,
                -0.47115424275398254
            ]
        },
        {
            "mesh" : 1,
            "name" : "Planter.001",
            "rotation" : [
                0.6762983798980713,
                0.20644743740558624,
                -0.20644743740558624,
                0.6762983202934265
            ],
            "scale" : [
                0.08127385377883911,
                0.08127385377883911,
                0.13811418414115906
            ],
            "translation" : [
                0.33159005641937256,
                1.1401984691619873,
                -0.4669799208641052
            ]
        }
    ],
    "materials" : [
        {
            "doubleSided" : true,
            "name" : "Material.003",
            "pbrMetallicRoughness" : {
                "baseColorTexture" : {
                    "index" : 0
                },
                "metallicRoughnessTexture" : {
                    "index" : 1
                }
            }
        },
        {
            "doubleSided" : true,
            "name" : "Material.004",
            "pbrMetallicRoughness" : {
                "baseColorTexture" : {
                    "index" : 2
                },
                "metallicRoughnessTexture" : {
                    "index" : 3
                }
            }
        }
    ],
    "meshes" : [
        {
            "name" : "Cylinder.004",
            "primitives" : [
                {
                    "attributes" : {
                        "POSITION" : 0,
                        "TEXCOORD_0" : 1,
                        "NORMAL" : 2
                    },
                    "indices" : 3,
                    "material" : 0
                }
            ]
        },
        {
            "name" : "Cylinder.001",
            "primitives" : [
                {
                    "attributes" : {
                        "POSITION" : 4,
                        "TEXCOORD_0" : 5,
                        "NORMAL" : 6
                    },
                    "indices" : 7,
                    "material" : 1
                }
            ]
        }
    ],
    "textures" : [
        {
            "sampler" : 0,
            "source" : 0
        },
        {
            "sampler" : 0,
            "source" : 1
        },
        {
            "sampler" : 0,
            "source" : 0
        },
        {
            "sampler" : 0,
            "source" : 1
        }
    ],
    "images" : [
        {
            "bufferView" : 4,
            "mimeType" : "image/png",
            "name" : "HangingPlant"
        },
        {
            "bufferView" : 5,
            "mimeType" : "image/png",
            "name" : "HangingPlantMetal-HangingPlantRoughness"
        }
    ],
    "accessors" : [
        {
            "bufferView" : 0,
            "componentType" : 5126,
            "count" : 1057,
            "max" : [
                1.8363752365112305,
                1.6797295808792114,
                4.091710567474365
            ],
            "min" : [
                -2.002434253692627,
                -1.8053408861160278,
                -0.18544213473796844
            ],
            "type" : "VEC3"
        },
        {
            "bufferView" : 1,
            "componentType" : 5126,
            "count" : 1057,
            "type" : "VEC2"
        },
        {
            "bufferView" : 2,
            "componentType" : 5126,
            "count" : 1057,
            "type" : "VEC3"
        },
        {
            "bufferView" : 3,
            "componentType" : 5123,
            "count" : 3762,
            "type" : "SCALAR"
        },
        {
            "bufferView" : 6,
            "componentType" : 5126,
            "count" : 508,
            "max" : [
                1.8363752365112305,
                1.6797295808792114,
                4.091710567474365
            ],
            "min" : [
                -2.002434253692627,
                -1.8053408861160278,
                2.3282294273376465
            ],
            "type" : "VEC3"
        },
        {
            "bufferView" : 7,
            "componentType" : 5126,
            "count" : 508,
            "type" : "VEC2"
        },
        {
            "bufferView" : 8,
            "componentType" : 5126,
            "count" : 508,
            "type" : "VEC3"
        },
        {
            "bufferView" : 9,
            "componentType" : 5123,
            "count" : 1638,
            "type" : "SCALAR"
        }
    ],
    "bufferViews" : [
        {
            "buffer" : 0,
            "byteLength" : 12684,
            "byteOffset" : 0,
            "target" : 34962
        },
        {
            "buffer" : 0,
            "byteLength" : 8456,
            "byteOffset" : 12684,
            "target" : 34962
        },
        {
            "buffer" : 0,
            "byteLength" : 12684,
            "byteOffset" : 21140,
            "target" : 34962
        },
        {
            "buffer" : 0,
            "byteLength" : 7524,
            "byteOffset" : 33824,
            "target" : 34963
        },
        {
            "buffer" : 0,
            "byteLength" : 2904442,
            "byteOffset" : 41348
        },
        {
            "buffer" : 0,
            "byteLength" : 166786,
            "byteOffset" : 2945792
        },
        {
            "buffer" : 0,
            "byteLength" : 6096,
            "byteOffset" : 3112580,
            "target" : 34962
        },
        {
            "buffer" : 0,
            "byteLength" : 4064,
            "byteOffset" : 3118676,
            "target" : 34962
        },
        {
            "buffer" : 0,
            "byteLength" : 6096,
            "byteOffset" : 3122740,
            "target" : 34962
        },
        {
            "buffer" : 0,
            "byteLength" : 3276,
            "byteOffset" : 3128836,
            "target" : 34963
        }
    ],
    "samplers" : [
        {
            "magFilter" : 9729,
            "minFilter" : 9987
        }
    ],
    "buffers" : [
        {
            "byteLength" : 3132112,
            "uri" : "data:application/octet-stream;base64,"
        }
    ]
}
